<svg width="26" height="26" viewBox="0 0 26 26" fill="none" xmlns="http://www.w3.org/2000/svg">
<path fill-rule="evenodd" clip-rule="evenodd" d="M2.16668 7.58331C2.16668 5.78839 3.62175 4.33331 5.41668 4.33331H20.5833C22.3783 4.33331 23.8333 5.78839 23.8333 7.58331V8.64984C23.8335 8.66038 23.8335 8.67093 23.8333 8.68147V18.4166C23.8333 20.2116 22.3783 21.6666 20.5833 21.6666H5.41668C3.62175 21.6666 2.16668 20.2116 2.16668 18.4166V8.68146C2.16653 8.67093 2.16653 8.66039 2.16668 8.64984V7.58331ZM4.33335 10.6909V18.4166C4.33335 19.015 4.81837 19.5 5.41668 19.5H20.5833C21.1817 19.5 21.6667 19.015 21.6667 18.4166V10.6909L14.8028 15.2668C13.7111 15.9946 12.2889 15.9946 11.1972 15.2668L4.33335 10.6909ZM21.6667 8.08686L13.6009 13.464C13.237 13.7066 12.763 13.7066 12.3991 13.464L4.33335 8.08686V7.58331C4.33335 6.985 4.81837 6.49998 5.41668 6.49998H20.5833C21.1817 6.49998 21.6667 6.985 21.6667 7.58331V8.08686Z" fill="#1D1D1D"/>
</svg>
