<svg width="26" height="26" viewBox="0 0 26 26" fill="none" xmlns="http://www.w3.org/2000/svg">
<path fill-rule="evenodd" clip-rule="evenodd" d="M2.16669 5.41669C2.16669 3.62176 3.62176 2.16669 5.41669 2.16669H8.9692C9.9018 2.16669 10.7298 2.76345 11.0247 3.64819L12.6473 8.51609C12.9883 9.539 12.5252 10.657 11.5608 11.1392L10.0912 11.874C11.0517 13.5516 12.4484 14.9483 14.1261 15.9088L14.8609 14.4392C15.3431 13.4748 16.461 13.0118 17.484 13.3527L22.3518 14.9754C23.2366 15.2703 23.8334 16.0982 23.8334 17.0308V20.5834C23.8334 22.3783 22.3783 23.8334 20.5834 23.8334H19.5C9.92709 23.8334 2.16669 16.073 2.16669 6.50002V5.41669ZM5.41669 4.33335C4.81838 4.33335 4.33335 4.81838 4.33335 5.41669V6.50002C4.33335 14.8763 11.1237 21.6667 19.5 21.6667H20.5834C21.1817 21.6667 21.6667 21.1817 21.6667 20.5834V17.0308L16.7988 15.4082L15.5761 17.8536C15.3161 18.3736 14.6919 18.5957 14.1619 18.3567C11.2726 17.054 8.94604 14.7275 7.64335 11.8382C7.40437 11.3081 7.62642 10.684 8.14646 10.4239L10.5918 9.20125L8.9692 4.33335H5.41669Z" fill="#1D1D1D"/>
</svg>
